<?xml version="1.0" encoding="UTF-8" standalone="no"?>
<!DOCTYPE svg PUBLIC "-//W3C//DTD SVG 1.1//EN" "http://www.w3.org/Graphics/SVG/1.1/DTD/svg11.dtd">
<svg version="1.1" xmlns="http://www.w3.org/2000/svg" xmlns:xlink="http://www.w3.org/1999/xlink" preserveAspectRatio="xMidYMid meet" viewBox="0 0 50 50" width="50" height="50"><defs><path d="M21.98 0.07L22.8 0.15L23.61 0.27L24.41 0.41L25.19 0.59L25.97 0.8L26.73 1.04L27.48 1.3L28.22 1.6L28.94 1.92L29.65 2.27L30.34 2.64L31.01 3.04L31.67 3.47L32.31 3.92L32.93 4.39L33.53 4.89L34.11 5.41L34.68 5.95L35.22 6.51L35.74 7.09L36.23 7.7L36.71 8.32L37.16 8.96L37.58 9.61L37.98 10.29L38.36 10.98L38.71 11.68L39.03 12.41L39.32 13.14L39.59 13.89L39.83 14.66L40.03 15.43L40.21 16.22L40.36 17.02L40.47 17.83L40.56 18.65L40.61 19.48L40.63 20.31L40.61 21.15L40.56 21.98L40.47 22.8L40.36 23.61L40.21 24.41L40.03 25.19L39.83 25.97L39.59 26.73L39.32 27.48L39.03 28.22L38.71 28.94L38.36 29.65L37.98 30.34L37.58 31.01L37.17 31.65L50 44.48L44.48 50L31.65 37.17L31.01 37.58L30.34 37.98L29.65 38.36L28.94 38.71L28.22 39.03L27.48 39.32L26.73 39.59L25.97 39.83L25.19 40.03L24.41 40.21L23.61 40.36L22.8 40.47L21.98 40.56L21.15 40.61L20.31 40.63L19.48 40.61L18.65 40.56L17.83 40.47L17.02 40.36L16.22 40.21L15.43 40.03L14.66 39.83L13.89 39.59L13.14 39.32L12.41 39.03L11.68 38.71L10.98 38.36L10.29 37.98L9.61 37.58L8.96 37.16L8.32 36.71L7.7 36.23L7.09 35.74L6.51 35.22L5.95 34.68L5.41 34.11L4.89 33.53L4.39 32.93L3.92 32.31L3.47 31.67L3.04 31.01L2.64 30.34L2.27 29.65L1.92 28.94L1.6 28.22L1.3 27.48L1.04 26.73L0.8 25.97L0.59 25.19L0.41 24.41L0.27 23.61L0.15 22.8L0.07 21.98L0.02 21.15L0 20.31L0.02 19.48L0.07 18.65L0.15 17.83L0.27 17.02L0.41 16.22L0.59 15.43L0.8 14.66L1.04 13.89L1.3 13.14L1.6 12.41L1.92 11.68L2.27 10.98L2.64 10.29L3.04 9.61L3.47 8.96L3.92 8.32L4.39 7.7L4.89 7.09L5.41 6.51L5.95 5.95L6.51 5.41L7.09 4.89L7.7 4.39L8.32 3.92L8.96 3.47L9.61 3.04L10.29 2.64L10.98 2.27L11.68 1.92L12.41 1.6L13.14 1.3L13.89 1.04L14.66 0.8L15.43 0.59L16.22 0.41L17.02 0.27L17.83 0.15L18.65 0.07L19.48 0.02L20.31 0L21.15 0.02L21.98 0.07ZM19.28 7.82L18.78 7.87L18.28 7.94L17.79 8.03L17.3 8.14L16.82 8.27L16.35 8.42L15.89 8.58L15.43 8.76L14.99 8.96L14.55 9.18L14.13 9.41L13.71 9.66L13.31 9.92L12.91 10.2L12.53 10.49L12.16 10.8L11.8 11.12L11.45 11.45L11.12 11.8L10.8 12.16L10.49 12.53L10.2 12.91L9.92 13.31L9.66 13.71L9.41 14.13L9.18 14.55L8.96 14.99L8.76 15.43L8.58 15.89L8.42 16.35L8.27 16.82L8.14 17.3L8.03 17.79L7.94 18.28L7.87 18.78L7.82 19.28L7.79 19.8L7.78 20.31L7.79 20.83L7.82 21.34L7.87 21.85L7.94 22.35L8.03 22.84L8.14 23.32L8.27 23.8L8.42 24.27L8.58 24.74L8.76 25.19L8.96 25.64L9.18 26.07L9.41 26.5L9.66 26.91L9.92 27.32L10.2 27.71L10.49 28.1L10.8 28.47L11.12 28.83L11.45 29.17L11.8 29.51L12.16 29.83L12.53 30.14L12.91 30.43L13.31 30.71L13.71 30.97L14.13 31.22L14.55 31.45L14.99 31.66L15.43 31.86L15.89 32.04L16.35 32.21L16.82 32.35L17.3 32.48L17.79 32.59L18.28 32.68L18.78 32.75L19.28 32.8L19.8 32.84L20.31 32.85L20.83 32.84L21.34 32.8L21.85 32.75L22.35 32.68L22.84 32.59L23.32 32.48L23.8 32.35L24.27 32.21L24.74 32.04L25.19 31.86L25.64 31.66L26.07 31.45L26.5 31.22L26.91 30.97L27.32 30.71L27.71 30.43L28.1 30.14L28.47 29.83L28.83 29.51L29.17 29.17L29.51 28.83L29.83 28.47L30.14 28.1L30.43 27.71L30.71 27.32L30.97 26.91L31.22 26.5L31.45 26.07L31.66 25.64L31.86 25.19L32.04 24.74L32.21 24.27L32.35 23.8L32.48 23.32L32.59 22.84L32.68 22.35L32.75 21.85L32.8 21.34L32.84 20.83L32.85 20.31L32.84 19.8L32.8 19.28L32.75 18.78L32.68 18.28L32.59 17.79L32.48 17.3L32.35 16.82L32.21 16.35L32.04 15.89L31.86 15.43L31.66 14.99L31.45 14.55L31.22 14.13L30.97 13.71L30.71 13.31L30.43 12.91L30.14 12.53L29.83 12.16L29.51 11.8L29.17 11.45L28.83 11.12L28.47 10.8L28.1 10.49L27.71 10.2L27.32 9.92L26.91 9.66L26.5 9.41L26.07 9.18L25.64 8.96L25.19 8.76L24.74 8.58L24.27 8.42L23.8 8.27L23.32 8.14L22.84 8.03L22.35 7.94L21.85 7.87L21.34 7.82L20.83 7.79L20.31 7.78L19.8 7.79L19.28 7.82Z" id="a9uC5vj5KJ"></path></defs><g><g><g><use xlink:href="#a9uC5vj5KJ" opacity="1" fill="#000000" fill-opacity="1"></use></g></g></g></svg>